<svg width="22" height="22" viewBox="0 0 22 22" fill="none" xmlns="http://www.w3.org/2000/svg">
<g clip-path="url(#clip0_720_13)">
<path d="M18.3788 0.752438C17.2234 1.16881 16.0136 1.41483 14.7873 1.48278C13.6394 1.34363 12.5005 1.13747 11.3766 0.865377C8.74132 0.278093 6.02325 -0.328015 3.28259 0.767496C3.11431 0.848954 3.00547 1.01733 3.00024 1.20419V9.48641C3.00231 10.9929 4.22309 12.2137 5.72961 12.2158H7.89428V18.898C7.89428 20.6133 9.2848 22.0038 11.0001 22.0038C12.7154 22.0038 14.1059 20.6133 14.1059 18.898V12.2158H16.2706C17.7771 12.2137 18.9979 10.9929 19 9.48641V1.20419C19.0007 1.18598 19.0053 0.95394 18.809 0.811919C18.6138 0.670698 18.3964 0.745991 18.3788 0.752438V0.752438ZM11.0001 20.1215C10.1165 20.1215 9.40014 19.4052 9.40014 18.5216C9.40014 17.6379 10.1165 16.9216 11.0001 16.9216C11.8838 16.9216 12.6001 17.6379 12.6001 18.5216C12.598 19.4043 11.8829 20.1195 11.0001 20.1215ZM16.2706 11.2746H5.72961C4.92402 11.2729 4.21862 10.7338 4.0054 9.95699H17.9948C17.7816 10.7338 17.0762 11.2729 16.2706 11.2746Z" fill="#BABABA"/>
</g>
<defs>
<clipPath id="clip0_720_13">
<rect width="22" height="22" fill="white"/>
</clipPath>
</defs>
</svg>
