<svg width="20" height="20" viewBox="0 0 20 20" fill="none" xmlns="http://www.w3.org/2000/svg">
<g clip-path="url(#clip0_720_2)">
<path d="M18.3204 9.06831C17.8603 9.06831 17.4871 8.69508 17.4871 8.23502C17.4871 5.89753 16.577 3.70087 14.9245 2.04743C14.5987 1.72166 14.5987 1.19508 14.9245 0.869148C15.2503 0.543373 15.777 0.543373 16.1028 0.869148C18.0704 2.83662 19.1536 5.45258 19.1536 8.23502C19.1536 8.69508 18.7804 9.06831 18.3204 9.06831Z" fill="#BABABA"/>
<path d="M1.65359 9.06831C1.1937 9.06831 0.820312 8.69508 0.820312 8.23502C0.820312 5.45258 1.90369 2.83662 3.87115 0.869148C4.19693 0.543373 4.72366 0.543373 5.04944 0.869148C5.37537 1.19508 5.37537 1.72166 5.04944 2.04743C3.39691 3.69996 2.48703 5.89753 2.48703 8.23502C2.48703 8.69508 2.11365 9.06831 1.65359 9.06831Z" fill="#BABABA"/>
<path d="M17.8029 14.0942C16.5428 13.0292 15.8203 11.4725 15.8203 9.8233V7.5C15.8203 4.56757 13.6419 2.14005 10.8203 1.7334V0.833282C10.8203 0.372467 10.4469 0 9.987 0C9.52695 0 9.15356 0.372467 9.15356 0.833282V1.7334C6.33115 2.14005 4.15356 4.56757 4.15356 7.5V9.8233C4.15356 11.4725 3.43106 13.0292 2.16367 14.1008C1.83942 14.3784 1.65356 14.7816 1.65356 15.2083C1.65356 16.0126 2.30771 16.6667 3.112 16.6667H16.862C17.6661 16.6667 18.3203 16.0126 18.3203 15.2083C18.3203 14.7816 18.1344 14.3784 17.8029 14.0942V14.0942Z" fill="#BABABA"/>
<path d="M9.98697 20C11.4961 20 12.7586 18.9241 13.0486 17.5H6.92529C7.21521 18.9241 8.47772 20 9.98697 20Z" fill="#BABABA"/>
</g>
<defs>
<clipPath id="clip0_720_2">
<rect width="20" height="20" fill="white"/>
</clipPath>
</defs>
</svg>
