<svg width="20" height="20" viewBox="0 0 20 20" fill="none" xmlns="http://www.w3.org/2000/svg">
<path d="M6.06607 0.630232C5.6773 0.603447 5.20084 0.603447 4.61823 0.603455H4.56415C3.98146 0.603447 3.50507 0.603447 3.11623 0.630232C2.71454 0.657901 2.34946 0.716793 2.00101 0.863055C1.22569 1.18851 0.6035 1.79603 0.267992 2.56408C0.116554 2.91069 0.0558539 3.27362 0.0274308 3.67015C-1.5288e-05 4.05292 -7.43464e-06 4.52131 2.57655e-07 5.09123V5.14708C-7.43464e-06 5.717 -1.5288e-05 6.18539 0.0274308 6.56815C0.0558539 6.96469 0.116554 7.32762 0.267992 7.67423C0.6035 8.44223 1.22569 9.04977 2.00101 9.37523C2.34946 9.52154 2.71454 9.58038 3.11623 9.60808C3.50507 9.63485 3.98146 9.63485 4.56415 9.63485H4.61823C5.20084 9.63485 5.6773 9.63485 6.06607 9.60808C6.46784 9.58038 6.83292 9.52154 7.1813 9.37523C7.95668 9.04977 8.57884 8.44223 8.91438 7.67423C9.06576 7.32762 9.12645 6.96469 9.15491 6.56815C9.18238 6.18539 9.18238 5.717 9.1823 5.14708V5.09123C9.18238 4.52131 9.18238 4.05292 9.15491 3.67015C9.12645 3.27362 9.06576 2.91069 8.91438 2.56408C8.57884 1.79603 7.95668 1.18851 7.1813 0.863055C6.83292 0.716793 6.46784 0.657901 6.06607 0.630232V0.630232Z" fill="#BABABA"/>
<path d="M16.3524 0.217095C15.6177 -0.0712743 14.7987 -0.0725359 14.0637 0.214356C13.7301 0.344526 13.4464 0.54391 13.1627 0.784649C12.8897 1.01652 12.5777 1.32144 12.2001 1.69069L12.1612 1.72874C11.7837 2.09785 11.4717 2.40277 11.2344 2.66993C10.9885 2.94685 10.7824 3.22646 10.6473 3.55746C10.3495 4.28662 10.3508 5.101 10.6501 5.82985C10.7859 6.16046 10.9923 6.44008 11.2387 6.71739C11.4766 6.985 11.7891 7.29062 12.1678 7.66077L12.2066 7.6987C12.5854 8.069 12.8979 8.37462 13.1714 8.607C13.4554 8.84823 13.7392 9.048 14.0724 9.1787C14.8071 9.46708 15.6261 9.46839 16.3611 9.18146C16.6946 9.05131 16.9784 8.85193 17.2621 8.61116C17.5351 8.37931 17.847 8.07439 18.2246 7.70516L18.2636 7.66708C18.6411 7.298 18.953 6.993 19.1904 6.72593C19.4363 6.449 19.6424 6.16931 19.7775 5.83839C20.0753 5.10916 20.074 4.29477 19.7747 3.56593C19.6389 3.23531 19.4325 2.9557 19.186 2.67846C18.9482 2.41085 18.6356 2.10522 18.257 1.73503L18.2182 1.69716C17.8394 1.32683 17.5269 1.02123 17.2533 0.788795C16.9694 0.547564 16.6855 0.347856 16.3524 0.217095V0.217095Z" fill="#BABABA"/>
<path d="M16.8837 10.9954C16.4949 10.9686 16.0185 10.9686 15.4358 10.9686H15.3817C14.7991 10.9686 14.3226 10.9686 13.9339 10.9954C13.5321 11.0231 13.167 11.0819 12.8186 11.2282C12.0432 11.5537 11.4211 12.1612 11.0856 12.9292C10.9342 13.2759 10.8735 13.6388 10.845 14.0353C10.8176 14.4181 10.8176 14.8865 10.8176 15.4564V15.5122C10.8176 16.0822 10.8176 16.5506 10.845 16.9333C10.8735 17.3299 10.9342 17.6928 11.0856 18.0394C11.4211 18.8075 12.0433 19.4149 12.8186 19.7404C13.167 19.8867 13.5321 19.9455 13.9339 19.9732C14.3226 20 14.7991 20 15.3817 20H15.4359C16.0185 20 16.4949 20 16.8837 19.9732C17.2854 19.9455 17.6505 19.8867 17.9989 19.7404C18.7742 19.4149 19.3964 18.8075 19.7319 18.0394C19.8834 17.6928 19.9441 17.3299 19.9725 16.9333C19.9999 16.5506 19.9999 16.0822 19.9999 15.5122V15.4565C19.9999 14.8865 19.9999 14.4181 19.9725 14.0353C19.9441 13.6388 19.8834 13.2759 19.7319 12.9292C19.3964 12.1612 18.7742 11.5537 17.9989 11.2282C17.6505 11.0819 17.2854 11.0231 16.8837 10.9954V10.9954Z" fill="#BABABA"/>
<path d="M6.06607 10.9954C5.6773 10.9686 5.20084 10.9686 4.61823 10.9686H4.56415C3.98146 10.9686 3.50507 10.9686 3.11623 10.9954C2.71454 11.0231 2.34946 11.0819 2.00101 11.2282C1.22569 11.5537 0.6035 12.1612 0.267992 12.9292C0.116554 13.2759 0.0558539 13.6388 0.0274308 14.0353C-1.5288e-05 14.4181 -7.43464e-06 14.8865 2.57655e-07 15.4564V15.5122C-7.43464e-06 16.0822 -1.5288e-05 16.5506 0.0274308 16.9333C0.0558539 17.3299 0.116554 17.6928 0.267992 18.0394C0.6035 18.8075 1.22569 19.4149 2.00101 19.7404C2.34946 19.8867 2.71454 19.9455 3.11623 19.9732C3.50507 20 3.98146 20 4.56407 20H4.61823C5.20084 20 5.6773 20 6.06607 19.9732C6.46784 19.9455 6.83292 19.8867 7.1813 19.7404C7.95661 19.4149 8.57884 18.8075 8.91438 18.0394C9.06576 17.6928 9.12645 17.3299 9.15491 16.9333C9.18238 16.5506 9.18238 16.0822 9.1823 15.5122V15.4564C9.18238 14.8865 9.18238 14.4181 9.15491 14.0353C9.12645 13.6388 9.06576 13.2759 8.91438 12.9292C8.57884 12.1612 7.95668 11.5537 7.1813 11.2282C6.83292 11.0819 6.46784 11.0231 6.06607 10.9954V10.9954Z" fill="#BABABA"/>
</svg>
